<svg width="20" height="20" viewBox="0 0 20 20" fill="none" xmlns="http://www.w3.org/2000/svg">
<path d="M18.1311 1.49387C16.1388 -0.497956 12.9087 -0.497956 10.9169 1.49387L8.07042 4.33914C8.2958 4.31459 8.52345 4.30405 8.75229 4.30405C9.47258 4.30405 10.1731 4.41854 10.8363 4.63911L12.4493 3.0268C13.0033 2.47225 13.74 2.16747 14.5234 2.16747C15.307 2.16747 16.0437 2.47224 16.5976 3.0268C17.1516 3.58015 17.4563 4.31578 17.4563 5.10026C17.4563 5.88368 17.1516 6.62037 16.5976 7.17373L13.4418 10.3295C12.8878 10.8843 12.1511 11.189 11.3677 11.189C10.583 11.189 9.84755 10.8843 9.293 10.3298C9.02333 10.0612 8.81316 9.74828 8.66839 9.40733C8.30879 9.42721 7.97252 9.57666 7.71564 9.83341L6.875 10.6751C7.10505 11.1012 7.40034 11.5028 7.75994 11.8638C9.75177 13.8557 12.9823 13.8557 14.9745 11.8638L18.1308 8.70682C20.1221 6.71513 20.1221 3.48584 18.1309 1.49398L18.1311 1.49387Z" fill="#5D4C68"/>
<path d="M11.4062 14.8237C10.6847 14.8237 9.97719 14.7069 9.29881 14.4769L7.67475 16.101C7.1214 16.6555 6.38467 16.9603 5.60129 16.9603C4.81786 16.9603 4.08237 16.6556 3.52782 16.101C2.97327 15.5475 2.6685 14.8109 2.6685 14.0275C2.6685 13.2441 2.97327 12.5072 3.52782 11.9528L6.6836 8.79705C7.23815 8.2437 7.97368 7.93892 8.75707 7.93892C9.54168 7.93892 10.2772 8.24369 10.8311 8.79705C11.1009 9.06673 11.3114 9.37965 11.4569 9.72056C11.8177 9.70188 12.1545 9.55123 12.4113 9.29448L13.2508 8.45385C13.0207 8.02644 12.7248 7.62493 12.3646 7.26413C10.3728 5.27231 7.1423 5.27231 5.15044 7.26413L1.99466 10.4211C0.00177965 12.413 0.00177965 15.6421 1.99466 17.6353C3.98648 19.6272 7.21564 19.6272 9.2075 17.6353L12.0492 14.7935C11.8373 14.8133 11.6231 14.824 11.4071 14.824L11.4062 14.8237Z" fill="#5D4C68"/>
</svg>
