<svg width="21" height="21" viewBox="0 0 21 21" fill="none" xmlns="http://www.w3.org/2000/svg">
<g clip-path="url(#clip0_41_4906)">
<path fill-rule="evenodd" clip-rule="evenodd" d="M13.9484 2.64189C14.5644 2.64938 15.1746 2.76179 15.7525 2.97423C16.1715 3.13481 16.552 3.38081 16.8696 3.69638C17.1872 4.01195 17.4347 4.3901 17.5963 4.80649C17.8101 5.38067 17.9232 5.98703 17.9308 6.59921C17.977 7.61739 17.9872 7.92261 17.9872 10.5C17.9872 13.0774 17.9775 13.3826 17.9308 14.4008C17.9232 15.013 17.8101 15.6193 17.5963 16.1935C17.4347 16.6099 17.1872 16.9881 16.8696 17.3036C16.552 17.6192 16.1715 17.8652 15.7525 18.0258C15.1746 18.2382 14.5644 18.3506 13.9484 18.3581C12.9242 18.4041 12.6171 18.4142 10.0229 18.4142C7.42871 18.4142 7.12155 18.4045 6.09739 18.3581C5.48133 18.3506 4.87113 18.2382 4.2933 18.0258C3.87428 17.8652 3.49373 17.6192 3.17616 17.3036C2.85859 16.9881 2.61104 16.6099 2.44944 16.1935C2.23565 15.6193 2.12253 15.013 2.11499 14.4008C2.06873 13.3826 2.05855 13.0774 2.05855 10.5C2.05855 7.92261 2.06827 7.61739 2.11499 6.59921C2.12253 5.98703 2.23565 5.38067 2.44944 4.80649C2.61104 4.3901 2.85859 4.01195 3.17616 3.69638C3.49373 3.38081 3.87428 3.13481 4.2933 2.97423C4.87113 2.76179 5.48133 2.64938 6.09739 2.64189C7.12201 2.59592 7.42917 2.58581 10.0229 2.58581C12.6166 2.58581 12.9238 2.59546 13.9484 2.64189ZM6.01782 0.904324C5.21156 0.92026 4.41385 1.07196 3.65864 1.35296C3.01078 1.59552 2.42399 1.97562 1.93921 2.46675C1.44452 2.94866 1.06168 3.53209 0.817438 4.17628C0.53465 4.92674 0.381991 5.71942 0.365954 6.52061C0.319696 7.54936 0.308594 7.8794 0.308594 10.4995C0.308594 13.1197 0.319696 13.4497 0.366879 14.4794C0.382916 15.2806 0.535575 16.0733 0.818363 16.8237C1.06233 17.4678 1.44485 18.0512 1.93921 18.5332C2.42426 19.0245 3.01138 19.4046 3.65956 19.647C4.41478 19.928 5.21248 20.0797 6.01875 20.0957C7.05494 20.1416 7.38569 20.1536 10.0238 20.1536C12.6619 20.1536 12.9927 20.1426 14.0289 20.0957C14.8351 20.0797 15.6328 19.928 16.3881 19.647C17.0332 19.3985 17.619 19.019 18.1081 18.5327C18.5971 18.0464 18.9787 17.464 19.2283 16.8228C19.5111 16.0723 19.6638 15.2797 19.6798 14.4785C19.7261 13.4497 19.7372 13.1197 19.7372 10.4995C19.7372 7.8794 19.7261 7.54936 19.6789 6.51969C19.6629 5.7185 19.5102 4.92582 19.2274 4.17536C18.9834 3.53125 18.6009 2.94783 18.1066 2.46583C17.6215 1.97459 17.0344 1.59448 16.3862 1.35205C15.631 1.07104 14.8333 0.91934 14.027 0.903405C12.9918 0.857437 12.6596 0.846405 10.0229 0.846405C7.38615 0.846405 7.05401 0.857437 6.01782 0.904324Z" fill="#5D4C68"/>
<path fill-rule="evenodd" clip-rule="evenodd" d="M7.2483 6.37812C6.42794 6.92281 5.78855 7.69701 5.41098 8.6028C5.03341 9.5086 4.93462 10.5053 5.12711 11.4669C5.31959 12.4285 5.7947 13.3118 6.49236 14.005C7.19001 14.6983 8.07888 15.1704 9.04656 15.3617C10.0142 15.5529 11.0173 15.4548 11.9288 15.0796C12.8403 14.7044 13.6194 14.069 14.1676 13.2538C14.7157 12.4386 15.0083 11.4802 15.0083 10.4998C15.0083 9.1851 14.4827 7.92424 13.5472 6.9946C12.6117 6.06496 11.3428 5.54269 10.0198 5.54269C9.03314 5.54269 8.06866 5.83342 7.2483 6.37812ZM8.22078 13.1752C7.68828 12.8217 7.27324 12.3191 7.02816 11.7312C6.78308 11.1432 6.71895 10.4962 6.84389 9.87206C6.96884 9.24789 7.27724 8.67455 7.73009 8.22454C8.18295 7.77454 8.75992 7.46808 9.38805 7.34392C10.0162 7.21977 10.6673 7.28349 11.2589 7.52703C11.8506 7.77057 12.3563 8.18299 12.7122 8.71214C13.068 9.24129 13.2579 9.86341 13.2579 10.4998C13.2579 11.3532 12.9167 12.1716 12.3095 12.7751C11.7022 13.3785 10.8786 13.7175 10.0198 13.7175C9.37934 13.7175 8.75328 13.5288 8.22078 13.1752Z" fill="#5D4C68"/>
<path fill-rule="evenodd" clip-rule="evenodd" d="M15.2087 6.50495C14.5649 6.50495 14.043 5.98633 14.043 5.34658C14.043 4.70682 14.5649 4.1882 15.2087 4.1882C15.8525 4.1882 16.3744 4.70682 16.3744 5.34658C16.3744 5.98633 15.8525 6.50495 15.2087 6.50495Z" fill="#5D4C68"/>
</g>
<defs>
<clipPath id="clip0_41_4906">
<rect width="20.2565" height="19.3072" fill="white" transform="translate(0.308594 0.846405)"/>
</clipPath>
</defs>
</svg>
