<svg width="21" height="21" viewBox="0 0 21 21" fill="none" xmlns="http://www.w3.org/2000/svg">
<path fill-rule="evenodd" clip-rule="evenodd" d="M10.5 0C16.2951 0 21 4.7049 21 10.5C21 16.2951 16.2951 21 10.5 21C4.7049 21 0 16.2951 0 10.5C0 4.7049 4.7049 0 10.5 0ZM7.21723 16.401V8.20107H4.49117V16.401H7.21723ZM17.0454 16.401V11.6987C17.0454 9.17995 15.7006 8.00826 13.9073 8.00826C12.4613 8.00826 11.8136 8.80351 11.4509 9.36206V8.20107H8.72558C8.76172 8.9704 8.72558 16.401 8.72558 16.401H11.4509V11.8216C11.4509 11.5765 11.4685 11.3314 11.5408 11.1562C11.7374 10.6667 12.1862 10.1596 12.9392 10.1596C13.925 10.1596 14.3199 10.9118 14.3199 12.0137V16.401H17.0454ZM5.87262 4.24717C4.93992 4.24717 4.33055 4.86035 4.33055 5.66405C4.33055 6.45081 4.92138 7.0809 5.83652 7.0809H5.85412C6.80466 7.0809 7.39631 6.45081 7.39631 5.66405C7.37867 4.86035 6.8047 4.24717 5.87262 4.24717Z" fill="#000000"/>
</svg>
