<svg width="22" height="17" viewBox="0 0 22 17" fill="none" xmlns="http://www.w3.org/2000/svg">
<path d="M7.10409 17C15.0286 17 19.363 10.459 19.363 4.78671C19.363 4.60095 19.363 4.41601 19.3505 4.23188C20.1937 3.62421 20.9216 2.87188 21.5 2.01C20.7137 2.35713 19.8795 2.58474 19.0254 2.68534C19.9246 2.14906 20.598 1.30491 20.9195 0.31113C20.0738 0.811086 19.1485 1.16349 18.1837 1.35305C17.369 0.489986 16.2313 0 15.0422 0C12.6763 0 10.7296 1.93951 10.7296 4.29648C10.7296 4.62347 10.7671 4.94943 10.8412 5.26791C7.37877 5.09502 4.1483 3.46337 1.96159 0.783136C0.824475 2.73336 1.41284 5.26072 3.2955 6.51317C2.60993 6.49294 1.93907 6.30865 1.34 5.9759V6.03029C1.34057 8.06583 2.79388 9.83507 4.79659 10.2381C4.16233 10.4104 3.49668 10.4356 2.85118 10.3117C3.4142 12.056 5.03776 13.2583 6.87645 13.2927C5.35108 14.487 3.46572 15.1357 1.52564 15.1338C1.18283 15.1331 0.840348 15.1125 0.5 15.0718C2.47014 16.3314 4.76316 16.9998 7.10409 16.9966" fill="#000000"/>
</svg>
